<?xml version="1.0" standalone="no"?>
<!DOCTYPE svg PUBLIC "-//W3C//DTD SVG 20010904//EN"
 "http://www.w3.org/TR/2001/REC-SVG-20010904/DTD/svg10.dtd">
<svg version="1.0" xmlns="http://www.w3.org/2000/svg"
 width="512.000000pt" height="512.000000pt" viewBox="0 0 512.000000 512.000000"
 preserveAspectRatio="xMidYMid meet">

<g transform="translate(0.000000,512.000000) scale(0.100000,-0.100000)"
fill="#000000" stroke="none">
<path d="M1081 4524 c-112 -30 -219 -111 -276 -208 -14 -25 -115 -285 -224
-579 l-199 -535 -73 -68 c-175 -162 -228 -231 -277 -366 l-27 -73 -3 -842 c-3
-928 -3 -932 58 -1038 64 -113 175 -194 297 -220 81 -17 392 -20 474 -5 166
32 306 160 353 324 11 38 16 97 16 200 l0 146 1360 0 1360 0 0 -146 c0 -103 5
-162 16 -200 47 -164 187 -292 353 -324 82 -15 393 -12 474 5 122 26 233 107
297 220 61 106 61 108 58 1058 l-3 862 -27 73 c-39 109 -83 174 -184 281 l-91
96 -202 545 c-111 300 -213 563 -226 585 -56 97 -168 179 -286 210 -81 22
-2938 21 -3018 -1z m3018 -230 c31 -16 64 -43 81 -65 15 -22 72 -157 126 -302
53 -144 132 -355 174 -469 l78 -208 -127 0 -127 0 -17 72 c-62 258 -269 467
-537 544 -87 25 -278 25 -370 1 -269 -72 -492 -299 -550 -560 l-13 -57 -1092
0 -1093 0 78 208 c42 114 121 325 174 469 54 145 111 280 126 302 17 22 50 49
81 65 l53 26 1451 0 1451 0 53 -26z m-356 -657 c147 -57 252 -161 311 -309 14
-36 26 -69 26 -72 0 -3 -234 -6 -520 -6 l-520 0 6 28 c12 49 53 133 89 182 61
83 192 169 299 196 81 21 227 12 309 -19z m1002 -697 c89 -98 130 -169 145
-249 6 -31 10 -256 10 -540 0 -468 -1 -488 -21 -531 -27 -60 -54 -88 -114
-116 l-50 -24 -2155 0 -2155 0 -50 24 c-60 28 -87 56 -114 116 -20 43 -21 64
-21 520 0 616 -4 600 189 787 l106 103 2075 -1 2075 -1 80 -88z m-4082 -1678
l317 -3 0 -140 c0 -96 -4 -150 -14 -173 -22 -52 -72 -102 -127 -125 -47 -21
-63 -22 -253 -19 l-203 3 -49 30 c-30 19 -60 49 -79 79 l-30 49 -3 178 -3 177
63 -26 63 -27 318 -3z m4228 -293 c-18 -59 -64 -114 -122 -143 -52 -25 -57
-26 -248 -26 -185 0 -199 2 -246 24 -54 25 -100 71 -122 123 -9 22 -13 77 -13
172 l0 140 318 3 c312 3 318 3 377 28 l60 25 3 -155 c2 -88 -1 -170 -7 -191z"/>
<path d="M572 2577 c-56 -31 -57 -38 -60 -357 -3 -324 1 -357 51 -394 28 -20
41 -21 425 -24 465 -4 490 -2 532 39 l30 31 0 318 c0 208 -4 327 -11 343 -26
57 -28 57 -506 57 -332 -1 -443 -4 -461 -13z m758 -382 l0 -175 -297 2 -298 3
-3 173 -2 172 300 0 300 0 0 -175z"/>
<path d="M3618 2573 c-14 -9 -31 -27 -37 -40 -7 -16 -11 -136 -11 -343 l0
-318 30 -31 c42 -41 67 -43 532 -39 384 3 397 4 425 24 50 37 54 70 51 394 -3
262 -5 298 -21 321 -32 48 -40 49 -505 49 -389 -1 -440 -2 -464 -17z m770
-375 l-3 -173 -297 -3 -298 -2 0 175 0 175 300 0 300 0 -2 -172z"/>
<path d="M1974 2451 c-60 -37 -66 -116 -12 -168 l29 -28 569 0 569 0 29 28
c37 35 46 77 28 122 -28 66 -14 65 -628 65 -526 0 -555 -1 -584 -19z"/>
<path d="M1967 2110 c-14 -11 -31 -36 -37 -54 -14 -43 6 -96 46 -123 26 -17
62 -18 584 -18 522 0 558 1 584 18 40 27 60 80 46 123 -6 18 -23 43 -37 54
-25 20 -39 20 -593 20 -554 0 -568 0 -593 -20z"/>
</g>
</svg>
